<mxfile host="Electron" agent="Mozilla/5.0 (Windows NT 10.0; Win64; x64) AppleWebKit/537.36 (KHTML, like Gecko) draw.io/25.0.2 Chrome/128.0.6613.186 Electron/32.2.5 Safari/537.36" version="25.0.2">
  <diagram id="ZxXwK-TmG2tBLpuaiVWN" name="Page-1">
    <mxGraphModel dx="1434" dy="845" grid="1" gridSize="10" guides="1" tooltips="1" connect="1" arrows="1" fold="1" page="1" pageScale="1" pageWidth="827" pageHeight="1169" math="0" shadow="0">
      <root>
        <mxCell id="0" />
        <mxCell id="1" parent="0" />
        <mxCell id="9EUlEhy6TDJnNqE-2FSi-29" value="doc" style="shape=module;align=left;spacingLeft=20;align=center;verticalAlign=top;whiteSpace=wrap;html=1;" vertex="1" parent="1">
          <mxGeometry x="780" y="990" width="650" height="190" as="geometry" />
        </mxCell>
        <mxCell id="9EUlEhy6TDJnNqE-2FSi-28" value="doc" style="shape=module;align=left;spacingLeft=20;align=center;verticalAlign=top;whiteSpace=wrap;html=1;" vertex="1" parent="1">
          <mxGeometry x="780" y="750" width="650" height="220" as="geometry" />
        </mxCell>
        <mxCell id="nP_u4ckgyNHkZCIsKWe5-1" value="EquationSolver" style="swimlane;fontStyle=1;align=center;verticalAlign=top;childLayout=stackLayout;horizontal=1;startSize=26;horizontalStack=0;resizeParent=1;resizeParentMax=0;resizeLast=0;collapsible=1;marginBottom=0;" parent="1" vertex="1">
          <mxGeometry x="160" y="140" width="340" height="250" as="geometry" />
        </mxCell>
        <mxCell id="nP_u4ckgyNHkZCIsKWe5-2" value="GetQuadraticCoeff():double" style="text;strokeColor=none;fillColor=none;align=left;verticalAlign=top;spacingLeft=4;spacingRight=4;overflow=hidden;rotatable=0;points=[[0,0.5],[1,0.5]];portConstraint=eastwest;" parent="nP_u4ckgyNHkZCIsKWe5-1" vertex="1">
          <mxGeometry y="26" width="340" height="26" as="geometry" />
        </mxCell>
        <mxCell id="nP_u4ckgyNHkZCIsKWe5-7" value="SetQuadraticCoeff(value)" style="text;strokeColor=none;fillColor=none;align=left;verticalAlign=top;spacingLeft=4;spacingRight=4;overflow=hidden;rotatable=0;points=[[0,0.5],[1,0.5]];portConstraint=eastwest;" parent="nP_u4ckgyNHkZCIsKWe5-1" vertex="1">
          <mxGeometry y="52" width="340" height="26" as="geometry" />
        </mxCell>
        <mxCell id="nP_u4ckgyNHkZCIsKWe5-5" value="GetLinearCoeff()" style="text;strokeColor=none;fillColor=none;align=left;verticalAlign=top;spacingLeft=4;spacingRight=4;overflow=hidden;rotatable=0;points=[[0,0.5],[1,0.5]];portConstraint=eastwest;" parent="nP_u4ckgyNHkZCIsKWe5-1" vertex="1">
          <mxGeometry y="78" width="340" height="26" as="geometry" />
        </mxCell>
        <mxCell id="nP_u4ckgyNHkZCIsKWe5-8" value="SetLinearCoeff(value)" style="text;strokeColor=none;fillColor=none;align=left;verticalAlign=top;spacingLeft=4;spacingRight=4;overflow=hidden;rotatable=0;points=[[0,0.5],[1,0.5]];portConstraint=eastwest;" parent="nP_u4ckgyNHkZCIsKWe5-1" vertex="1">
          <mxGeometry y="104" width="340" height="26" as="geometry" />
        </mxCell>
        <mxCell id="nP_u4ckgyNHkZCIsKWe5-6" value="GetConstantCoeff()" style="text;strokeColor=none;fillColor=none;align=left;verticalAlign=top;spacingLeft=4;spacingRight=4;overflow=hidden;rotatable=0;points=[[0,0.5],[1,0.5]];portConstraint=eastwest;" parent="nP_u4ckgyNHkZCIsKWe5-1" vertex="1">
          <mxGeometry y="130" width="340" height="26" as="geometry" />
        </mxCell>
        <mxCell id="nP_u4ckgyNHkZCIsKWe5-9" value="SetConstantCoeff(value:double)" style="text;strokeColor=none;fillColor=none;align=left;verticalAlign=top;spacingLeft=4;spacingRight=4;overflow=hidden;rotatable=0;points=[[0,0.5],[1,0.5]];portConstraint=eastwest;" parent="nP_u4ckgyNHkZCIsKWe5-1" vertex="1">
          <mxGeometry y="156" width="340" height="26" as="geometry" />
        </mxCell>
        <mxCell id="nP_u4ckgyNHkZCIsKWe5-10" value="" style="line;strokeWidth=1;fillColor=none;align=left;verticalAlign=middle;spacingTop=-1;spacingLeft=3;spacingRight=3;rotatable=0;labelPosition=right;points=[];portConstraint=eastwest;" parent="nP_u4ckgyNHkZCIsKWe5-1" vertex="1">
          <mxGeometry y="182" width="340" height="8" as="geometry" />
        </mxCell>
        <mxCell id="nP_u4ckgyNHkZCIsKWe5-11" value="DoOnSolutionChange(handler:function&lt;void()&gt;):Connection" style="text;strokeColor=none;fillColor=none;align=left;verticalAlign=top;spacingLeft=4;spacingRight=4;overflow=hidden;rotatable=0;points=[[0,0.5],[1,0.5]];portConstraint=eastwest;" parent="nP_u4ckgyNHkZCIsKWe5-1" vertex="1">
          <mxGeometry y="190" width="340" height="26" as="geometry" />
        </mxCell>
        <mxCell id="nP_u4ckgyNHkZCIsKWe5-17" value="" style="line;strokeWidth=1;fillColor=none;align=left;verticalAlign=middle;spacingTop=-1;spacingLeft=3;spacingRight=3;rotatable=0;labelPosition=right;points=[];portConstraint=eastwest;" parent="nP_u4ckgyNHkZCIsKWe5-1" vertex="1">
          <mxGeometry y="216" width="340" height="8" as="geometry" />
        </mxCell>
        <mxCell id="nP_u4ckgyNHkZCIsKWe5-16" value="GetEquationRoots():EquationRoots" style="text;strokeColor=none;fillColor=none;align=left;verticalAlign=top;spacingLeft=4;spacingRight=4;overflow=hidden;rotatable=0;points=[[0,0.5],[1,0.5]];portConstraint=eastwest;" parent="nP_u4ckgyNHkZCIsKWe5-1" vertex="1">
          <mxGeometry y="224" width="340" height="26" as="geometry" />
        </mxCell>
        <mxCell id="nP_u4ckgyNHkZCIsKWe5-12" value="MainDlg" style="swimlane;fontStyle=1;align=center;verticalAlign=top;childLayout=stackLayout;horizontal=1;startSize=26;horizontalStack=0;resizeParent=1;resizeParentMax=0;resizeLast=0;collapsible=1;marginBottom=0;" parent="1" vertex="1">
          <mxGeometry x="230" y="500" width="160" height="52" as="geometry" />
        </mxCell>
        <mxCell id="nP_u4ckgyNHkZCIsKWe5-13" value="-m_solver:EquationSolver" style="text;strokeColor=none;fillColor=none;align=left;verticalAlign=top;spacingLeft=4;spacingRight=4;overflow=hidden;rotatable=0;points=[[0,0.5],[1,0.5]];portConstraint=eastwest;" parent="nP_u4ckgyNHkZCIsKWe5-12" vertex="1">
          <mxGeometry y="26" width="160" height="26" as="geometry" />
        </mxCell>
        <mxCell id="nP_u4ckgyNHkZCIsKWe5-18" value="" style="endArrow=diamondThin;endFill=0;endSize=24;html=1;" parent="1" source="nP_u4ckgyNHkZCIsKWe5-1" target="nP_u4ckgyNHkZCIsKWe5-12" edge="1">
          <mxGeometry width="160" relative="1" as="geometry">
            <mxPoint x="170" y="430" as="sourcePoint" />
            <mxPoint x="330" y="430" as="targetPoint" />
          </mxGeometry>
        </mxCell>
        <mxCell id="nP_u4ckgyNHkZCIsKWe5-19" value="" style="endArrow=diamondThin;endFill=0;endSize=24;html=1;" parent="1" source="nP_u4ckgyNHkZCIsKWe5-20" target="nP_u4ckgyNHkZCIsKWe5-12" edge="1">
          <mxGeometry width="160" relative="1" as="geometry">
            <mxPoint x="580" y="460" as="sourcePoint" />
            <mxPoint x="740" y="460" as="targetPoint" />
          </mxGeometry>
        </mxCell>
        <mxCell id="nP_u4ckgyNHkZCIsKWe5-20" value="IMainDlgController" style="swimlane;fontStyle=1;align=center;verticalAlign=top;childLayout=stackLayout;horizontal=1;startSize=26;horizontalStack=0;resizeParent=1;resizeParentMax=0;resizeLast=0;collapsible=1;marginBottom=0;" parent="1" vertex="1">
          <mxGeometry x="380" y="650" width="160" height="104" as="geometry" />
        </mxCell>
        <mxCell id="nP_u4ckgyNHkZCIsKWe5-21" value="SetCoeffA(a)" style="text;strokeColor=none;fillColor=none;align=left;verticalAlign=top;spacingLeft=4;spacingRight=4;overflow=hidden;rotatable=0;points=[[0,0.5],[1,0.5]];portConstraint=eastwest;" parent="nP_u4ckgyNHkZCIsKWe5-20" vertex="1">
          <mxGeometry y="26" width="160" height="26" as="geometry" />
        </mxCell>
        <mxCell id="nP_u4ckgyNHkZCIsKWe5-24" value="SetCoeffB(a)" style="text;strokeColor=none;fillColor=none;align=left;verticalAlign=top;spacingLeft=4;spacingRight=4;overflow=hidden;rotatable=0;points=[[0,0.5],[1,0.5]];portConstraint=eastwest;" parent="nP_u4ckgyNHkZCIsKWe5-20" vertex="1">
          <mxGeometry y="52" width="160" height="26" as="geometry" />
        </mxCell>
        <mxCell id="nP_u4ckgyNHkZCIsKWe5-25" value="SetCoeffC(a)" style="text;strokeColor=none;fillColor=none;align=left;verticalAlign=top;spacingLeft=4;spacingRight=4;overflow=hidden;rotatable=0;points=[[0,0.5],[1,0.5]];portConstraint=eastwest;" parent="nP_u4ckgyNHkZCIsKWe5-20" vertex="1">
          <mxGeometry y="78" width="160" height="26" as="geometry" />
        </mxCell>
        <mxCell id="nP_u4ckgyNHkZCIsKWe5-26" value="MainDlgController" style="swimlane;fontStyle=1;align=center;verticalAlign=top;childLayout=stackLayout;horizontal=1;startSize=26;horizontalStack=0;resizeParent=1;resizeParentMax=0;resizeLast=0;collapsible=1;marginBottom=0;" parent="1" vertex="1">
          <mxGeometry x="590" y="447" width="160" height="138" as="geometry" />
        </mxCell>
        <mxCell id="nP_u4ckgyNHkZCIsKWe5-27" value="ShowModal" style="text;strokeColor=none;fillColor=none;align=left;verticalAlign=top;spacingLeft=4;spacingRight=4;overflow=hidden;rotatable=0;points=[[0,0.5],[1,0.5]];portConstraint=eastwest;" parent="nP_u4ckgyNHkZCIsKWe5-26" vertex="1">
          <mxGeometry y="26" width="160" height="26" as="geometry" />
        </mxCell>
        <mxCell id="nP_u4ckgyNHkZCIsKWe5-36" value="" style="line;strokeWidth=1;fillColor=none;align=left;verticalAlign=middle;spacingTop=-1;spacingLeft=3;spacingRight=3;rotatable=0;labelPosition=right;points=[];portConstraint=eastwest;" parent="nP_u4ckgyNHkZCIsKWe5-26" vertex="1">
          <mxGeometry y="52" width="160" height="8" as="geometry" />
        </mxCell>
        <mxCell id="nP_u4ckgyNHkZCIsKWe5-32" value="SetCoeffA(a)" style="text;strokeColor=none;fillColor=none;align=left;verticalAlign=top;spacingLeft=4;spacingRight=4;overflow=hidden;rotatable=0;points=[[0,0.5],[1,0.5]];portConstraint=eastwest;" parent="nP_u4ckgyNHkZCIsKWe5-26" vertex="1">
          <mxGeometry y="60" width="160" height="26" as="geometry" />
        </mxCell>
        <mxCell id="nP_u4ckgyNHkZCIsKWe5-33" value="SetCoeffB(a)" style="text;strokeColor=none;fillColor=none;align=left;verticalAlign=top;spacingLeft=4;spacingRight=4;overflow=hidden;rotatable=0;points=[[0,0.5],[1,0.5]];portConstraint=eastwest;" parent="nP_u4ckgyNHkZCIsKWe5-26" vertex="1">
          <mxGeometry y="86" width="160" height="26" as="geometry" />
        </mxCell>
        <mxCell id="nP_u4ckgyNHkZCIsKWe5-34" value="SetCoeffC(a)" style="text;strokeColor=none;fillColor=none;align=left;verticalAlign=top;spacingLeft=4;spacingRight=4;overflow=hidden;rotatable=0;points=[[0,0.5],[1,0.5]];portConstraint=eastwest;" parent="nP_u4ckgyNHkZCIsKWe5-26" vertex="1">
          <mxGeometry y="112" width="160" height="26" as="geometry" />
        </mxCell>
        <mxCell id="nP_u4ckgyNHkZCIsKWe5-30" value="" style="endArrow=block;dashed=1;endFill=0;endSize=12;html=1;" parent="1" source="nP_u4ckgyNHkZCIsKWe5-26" target="nP_u4ckgyNHkZCIsKWe5-20" edge="1">
          <mxGeometry width="160" relative="1" as="geometry">
            <mxPoint x="640" y="440" as="sourcePoint" />
            <mxPoint x="800" y="440" as="targetPoint" />
          </mxGeometry>
        </mxCell>
        <mxCell id="nP_u4ckgyNHkZCIsKWe5-31" value="" style="endArrow=diamondThin;endFill=0;endSize=24;html=1;" parent="1" source="nP_u4ckgyNHkZCIsKWe5-1" target="nP_u4ckgyNHkZCIsKWe5-26" edge="1">
          <mxGeometry width="160" relative="1" as="geometry">
            <mxPoint x="580" y="395.2941176470588" as="sourcePoint" />
            <mxPoint x="368.0434782608695" y="510" as="targetPoint" />
          </mxGeometry>
        </mxCell>
        <mxCell id="nP_u4ckgyNHkZCIsKWe5-35" value="Creates" style="endArrow=open;endSize=12;dashed=1;html=1;" parent="1" source="nP_u4ckgyNHkZCIsKWe5-26" target="nP_u4ckgyNHkZCIsKWe5-12" edge="1">
          <mxGeometry width="160" relative="1" as="geometry">
            <mxPoint x="380" y="580" as="sourcePoint" />
            <mxPoint x="540" y="580" as="targetPoint" />
          </mxGeometry>
        </mxCell>
        <mxCell id="nP_u4ckgyNHkZCIsKWe5-37" value="interface&#xa;View" style="swimlane;fontStyle=1;align=center;verticalAlign=top;childLayout=stackLayout;horizontal=1;startSize=40;horizontalStack=0;resizeParent=1;resizeParentMax=0;resizeLast=0;collapsible=1;marginBottom=0;" parent="1" vertex="1">
          <mxGeometry x="150" y="960" width="210" height="144" as="geometry" />
        </mxCell>
        <mxCell id="nP_u4ckgyNHkZCIsKWe5-38" value="SetCoeffA():string" style="text;strokeColor=none;fillColor=none;align=left;verticalAlign=top;spacingLeft=4;spacingRight=4;overflow=hidden;rotatable=0;points=[[0,0.5],[1,0.5]];portConstraint=eastwest;" parent="nP_u4ckgyNHkZCIsKWe5-37" vertex="1">
          <mxGeometry y="40" width="210" height="26" as="geometry" />
        </mxCell>
        <mxCell id="nP_u4ckgyNHkZCIsKWe5-49" value="SetCoeffB():string" style="text;strokeColor=none;fillColor=none;align=left;verticalAlign=top;spacingLeft=4;spacingRight=4;overflow=hidden;rotatable=0;points=[[0,0.5],[1,0.5]];portConstraint=eastwest;" parent="nP_u4ckgyNHkZCIsKWe5-37" vertex="1">
          <mxGeometry y="66" width="210" height="26" as="geometry" />
        </mxCell>
        <mxCell id="nP_u4ckgyNHkZCIsKWe5-50" value="SetCoeffC():string" style="text;strokeColor=none;fillColor=none;align=left;verticalAlign=top;spacingLeft=4;spacingRight=4;overflow=hidden;rotatable=0;points=[[0,0.5],[1,0.5]];portConstraint=eastwest;" parent="nP_u4ckgyNHkZCIsKWe5-37" vertex="1">
          <mxGeometry y="92" width="210" height="26" as="geometry" />
        </mxCell>
        <mxCell id="nP_u4ckgyNHkZCIsKWe5-61" value="SetSoluton(solution:string)" style="text;strokeColor=none;fillColor=none;align=left;verticalAlign=top;spacingLeft=4;spacingRight=4;overflow=hidden;rotatable=0;points=[[0,0.5],[1,0.5]];portConstraint=eastwest;" parent="nP_u4ckgyNHkZCIsKWe5-37" vertex="1">
          <mxGeometry y="118" width="210" height="26" as="geometry" />
        </mxCell>
        <mxCell id="nP_u4ckgyNHkZCIsKWe5-41" value="MainDlg" style="swimlane;fontStyle=1;align=center;verticalAlign=top;childLayout=stackLayout;horizontal=1;startSize=26;horizontalStack=0;resizeParent=1;resizeParentMax=0;resizeLast=0;collapsible=1;marginBottom=0;" parent="1" vertex="1">
          <mxGeometry x="180" y="1220" width="160" height="52" as="geometry" />
        </mxCell>
        <mxCell id="nP_u4ckgyNHkZCIsKWe5-45" value="Presenter" style="swimlane;fontStyle=1;align=center;verticalAlign=top;childLayout=stackLayout;horizontal=1;startSize=26;horizontalStack=0;resizeParent=1;resizeParentMax=0;resizeLast=0;collapsible=1;marginBottom=0;" parent="1" vertex="1">
          <mxGeometry x="490" y="1320" width="160" height="86" as="geometry" />
        </mxCell>
        <mxCell id="nP_u4ckgyNHkZCIsKWe5-46" value="+ field: type" style="text;strokeColor=none;fillColor=none;align=left;verticalAlign=top;spacingLeft=4;spacingRight=4;overflow=hidden;rotatable=0;points=[[0,0.5],[1,0.5]];portConstraint=eastwest;" parent="nP_u4ckgyNHkZCIsKWe5-45" vertex="1">
          <mxGeometry y="26" width="160" height="26" as="geometry" />
        </mxCell>
        <mxCell id="nP_u4ckgyNHkZCIsKWe5-47" value="" style="line;strokeWidth=1;fillColor=none;align=left;verticalAlign=middle;spacingTop=-1;spacingLeft=3;spacingRight=3;rotatable=0;labelPosition=right;points=[];portConstraint=eastwest;" parent="nP_u4ckgyNHkZCIsKWe5-45" vertex="1">
          <mxGeometry y="52" width="160" height="8" as="geometry" />
        </mxCell>
        <mxCell id="nP_u4ckgyNHkZCIsKWe5-48" value="+ method(type): type" style="text;strokeColor=none;fillColor=none;align=left;verticalAlign=top;spacingLeft=4;spacingRight=4;overflow=hidden;rotatable=0;points=[[0,0.5],[1,0.5]];portConstraint=eastwest;" parent="nP_u4ckgyNHkZCIsKWe5-45" vertex="1">
          <mxGeometry y="60" width="160" height="26" as="geometry" />
        </mxCell>
        <mxCell id="nP_u4ckgyNHkZCIsKWe5-51" value="interface&#xa;ViewOutput" style="swimlane;fontStyle=1;align=center;verticalAlign=top;childLayout=stackLayout;horizontal=1;startSize=40;horizontalStack=0;resizeParent=1;resizeParentMax=0;resizeLast=0;collapsible=1;marginBottom=0;" parent="1" vertex="1">
          <mxGeometry x="480" y="1030" width="160" height="118" as="geometry" />
        </mxCell>
        <mxCell id="nP_u4ckgyNHkZCIsKWe5-52" value="OnSetCoeffA(value)" style="text;strokeColor=none;fillColor=none;align=left;verticalAlign=top;spacingLeft=4;spacingRight=4;overflow=hidden;rotatable=0;points=[[0,0.5],[1,0.5]];portConstraint=eastwest;" parent="nP_u4ckgyNHkZCIsKWe5-51" vertex="1">
          <mxGeometry y="40" width="160" height="26" as="geometry" />
        </mxCell>
        <mxCell id="nP_u4ckgyNHkZCIsKWe5-55" value="OnSetCoeffB(value)" style="text;strokeColor=none;fillColor=none;align=left;verticalAlign=top;spacingLeft=4;spacingRight=4;overflow=hidden;rotatable=0;points=[[0,0.5],[1,0.5]];portConstraint=eastwest;" parent="nP_u4ckgyNHkZCIsKWe5-51" vertex="1">
          <mxGeometry y="66" width="160" height="26" as="geometry" />
        </mxCell>
        <mxCell id="nP_u4ckgyNHkZCIsKWe5-56" value="OnSetCoeffC(value)" style="text;strokeColor=none;fillColor=none;align=left;verticalAlign=top;spacingLeft=4;spacingRight=4;overflow=hidden;rotatable=0;points=[[0,0.5],[1,0.5]];portConstraint=eastwest;" parent="nP_u4ckgyNHkZCIsKWe5-51" vertex="1">
          <mxGeometry y="92" width="160" height="26" as="geometry" />
        </mxCell>
        <mxCell id="nP_u4ckgyNHkZCIsKWe5-57" value="" style="endArrow=diamondThin;endFill=0;endSize=24;html=1;" parent="1" source="nP_u4ckgyNHkZCIsKWe5-51" target="nP_u4ckgyNHkZCIsKWe5-41" edge="1">
          <mxGeometry width="160" relative="1" as="geometry">
            <mxPoint x="420" y="1260" as="sourcePoint" />
            <mxPoint x="580" y="1260" as="targetPoint" />
          </mxGeometry>
        </mxCell>
        <mxCell id="nP_u4ckgyNHkZCIsKWe5-58" value="" style="endArrow=block;dashed=1;endFill=0;endSize=12;html=1;" parent="1" source="nP_u4ckgyNHkZCIsKWe5-45" target="nP_u4ckgyNHkZCIsKWe5-51" edge="1">
          <mxGeometry width="160" relative="1" as="geometry">
            <mxPoint x="510" y="1250" as="sourcePoint" />
            <mxPoint x="670" y="1250" as="targetPoint" />
          </mxGeometry>
        </mxCell>
        <mxCell id="nP_u4ckgyNHkZCIsKWe5-59" value="" style="endArrow=diamondThin;endFill=0;endSize=24;html=1;" parent="1" source="nP_u4ckgyNHkZCIsKWe5-37" target="nP_u4ckgyNHkZCIsKWe5-45" edge="1">
          <mxGeometry width="160" relative="1" as="geometry">
            <mxPoint x="380" y="1280" as="sourcePoint" />
            <mxPoint x="540" y="1280" as="targetPoint" />
          </mxGeometry>
        </mxCell>
        <mxCell id="nP_u4ckgyNHkZCIsKWe5-60" value="" style="endArrow=block;dashed=1;endFill=0;endSize=12;html=1;" parent="1" source="nP_u4ckgyNHkZCIsKWe5-41" target="nP_u4ckgyNHkZCIsKWe5-37" edge="1">
          <mxGeometry width="160" relative="1" as="geometry">
            <mxPoint x="90" y="1140" as="sourcePoint" />
            <mxPoint x="250" y="1140" as="targetPoint" />
          </mxGeometry>
        </mxCell>
        <mxCell id="nP_u4ckgyNHkZCIsKWe5-63" value="EquationSolver" style="swimlane;fontStyle=1;align=center;verticalAlign=top;childLayout=stackLayout;horizontal=1;startSize=26;horizontalStack=0;resizeParent=1;resizeParentMax=0;resizeLast=0;collapsible=1;marginBottom=0;" parent="1" vertex="1">
          <mxGeometry x="520" y="1540" width="160" height="86" as="geometry" />
        </mxCell>
        <mxCell id="nP_u4ckgyNHkZCIsKWe5-64" value="+ field: type" style="text;strokeColor=none;fillColor=none;align=left;verticalAlign=top;spacingLeft=4;spacingRight=4;overflow=hidden;rotatable=0;points=[[0,0.5],[1,0.5]];portConstraint=eastwest;" parent="nP_u4ckgyNHkZCIsKWe5-63" vertex="1">
          <mxGeometry y="26" width="160" height="26" as="geometry" />
        </mxCell>
        <mxCell id="nP_u4ckgyNHkZCIsKWe5-65" value="" style="line;strokeWidth=1;fillColor=none;align=left;verticalAlign=middle;spacingTop=-1;spacingLeft=3;spacingRight=3;rotatable=0;labelPosition=right;points=[];portConstraint=eastwest;" parent="nP_u4ckgyNHkZCIsKWe5-63" vertex="1">
          <mxGeometry y="52" width="160" height="8" as="geometry" />
        </mxCell>
        <mxCell id="nP_u4ckgyNHkZCIsKWe5-66" value="+ method(type): type" style="text;strokeColor=none;fillColor=none;align=left;verticalAlign=top;spacingLeft=4;spacingRight=4;overflow=hidden;rotatable=0;points=[[0,0.5],[1,0.5]];portConstraint=eastwest;" parent="nP_u4ckgyNHkZCIsKWe5-63" vertex="1">
          <mxGeometry y="60" width="160" height="26" as="geometry" />
        </mxCell>
        <mxCell id="4kKo8zn2Ya34dpTa8X-u-1" value="Counter" style="swimlane;fontStyle=1;align=center;verticalAlign=top;childLayout=stackLayout;horizontal=1;startSize=26;horizontalStack=0;resizeParent=1;resizeParentMax=0;resizeLast=0;collapsible=1;marginBottom=0;whiteSpace=wrap;html=1;" parent="1" vertex="1">
          <mxGeometry x="680" width="160" height="112" as="geometry" />
        </mxCell>
        <mxCell id="4kKo8zn2Ya34dpTa8X-u-5" value="mouseReleaseEvent(event)" style="text;strokeColor=none;fillColor=none;align=left;verticalAlign=top;spacingLeft=4;spacingRight=4;overflow=hidden;rotatable=0;points=[[0,0.5],[1,0.5]];portConstraint=eastwest;whiteSpace=wrap;html=1;" parent="4kKo8zn2Ya34dpTa8X-u-1" vertex="1">
          <mxGeometry y="26" width="160" height="26" as="geometry" />
        </mxCell>
        <mxCell id="4kKo8zn2Ya34dpTa8X-u-2" value="-_update()" style="text;strokeColor=none;fillColor=none;align=left;verticalAlign=top;spacingLeft=4;spacingRight=4;overflow=hidden;rotatable=0;points=[[0,0.5],[1,0.5]];portConstraint=eastwest;whiteSpace=wrap;html=1;" parent="4kKo8zn2Ya34dpTa8X-u-1" vertex="1">
          <mxGeometry y="52" width="160" height="26" as="geometry" />
        </mxCell>
        <mxCell id="4kKo8zn2Ya34dpTa8X-u-3" value="" style="line;strokeWidth=1;fillColor=none;align=left;verticalAlign=middle;spacingTop=-1;spacingLeft=3;spacingRight=3;rotatable=0;labelPosition=right;points=[];portConstraint=eastwest;strokeColor=inherit;" parent="4kKo8zn2Ya34dpTa8X-u-1" vertex="1">
          <mxGeometry y="78" width="160" height="8" as="geometry" />
        </mxCell>
        <mxCell id="4kKo8zn2Ya34dpTa8X-u-4" value="-_value:int" style="text;strokeColor=none;fillColor=none;align=left;verticalAlign=top;spacingLeft=4;spacingRight=4;overflow=hidden;rotatable=0;points=[[0,0.5],[1,0.5]];portConstraint=eastwest;whiteSpace=wrap;html=1;" parent="4kKo8zn2Ya34dpTa8X-u-1" vertex="1">
          <mxGeometry y="86" width="160" height="26" as="geometry" />
        </mxCell>
        <mxCell id="4kKo8zn2Ya34dpTa8X-u-6" value="CounterDocument" style="swimlane;fontStyle=1;align=center;verticalAlign=top;childLayout=stackLayout;horizontal=1;startSize=26;horizontalStack=0;resizeParent=1;resizeParentMax=0;resizeLast=0;collapsible=1;marginBottom=0;whiteSpace=wrap;html=1;" parent="1" vertex="1">
          <mxGeometry x="1045" y="210" width="210" height="242" as="geometry" />
        </mxCell>
        <mxCell id="4kKo8zn2Ya34dpTa8X-u-7" value="register(listener:ICounterListener)" style="text;strokeColor=none;fillColor=none;align=left;verticalAlign=top;spacingLeft=4;spacingRight=4;overflow=hidden;rotatable=0;points=[[0,0.5],[1,0.5]];portConstraint=eastwest;whiteSpace=wrap;html=1;" parent="4kKo8zn2Ya34dpTa8X-u-6" vertex="1">
          <mxGeometry y="26" width="210" height="26" as="geometry" />
        </mxCell>
        <mxCell id="4kKo8zn2Ya34dpTa8X-u-11" value="unregister(listener:ICounterListener)" style="text;strokeColor=none;fillColor=none;align=left;verticalAlign=top;spacingLeft=4;spacingRight=4;overflow=hidden;rotatable=0;points=[[0,0.5],[1,0.5]];portConstraint=eastwest;whiteSpace=wrap;html=1;" parent="4kKo8zn2Ya34dpTa8X-u-6" vertex="1">
          <mxGeometry y="52" width="210" height="26" as="geometry" />
        </mxCell>
        <mxCell id="4kKo8zn2Ya34dpTa8X-u-12" value="value():int" style="text;strokeColor=none;fillColor=none;align=left;verticalAlign=top;spacingLeft=4;spacingRight=4;overflow=hidden;rotatable=0;points=[[0,0.5],[1,0.5]];portConstraint=eastwest;whiteSpace=wrap;html=1;" parent="4kKo8zn2Ya34dpTa8X-u-6" vertex="1">
          <mxGeometry y="78" width="210" height="26" as="geometry" />
        </mxCell>
        <mxCell id="4kKo8zn2Ya34dpTa8X-u-13" value="setValue(v:int)" style="text;strokeColor=none;fillColor=none;align=left;verticalAlign=top;spacingLeft=4;spacingRight=4;overflow=hidden;rotatable=0;points=[[0,0.5],[1,0.5]];portConstraint=eastwest;whiteSpace=wrap;html=1;" parent="4kKo8zn2Ya34dpTa8X-u-6" vertex="1">
          <mxGeometry y="104" width="210" height="26" as="geometry" />
        </mxCell>
        <mxCell id="4kKo8zn2Ya34dpTa8X-u-14" value="-_notifyListeners()" style="text;strokeColor=none;fillColor=none;align=left;verticalAlign=top;spacingLeft=4;spacingRight=4;overflow=hidden;rotatable=0;points=[[0,0.5],[1,0.5]];portConstraint=eastwest;whiteSpace=wrap;html=1;" parent="4kKo8zn2Ya34dpTa8X-u-6" vertex="1">
          <mxGeometry y="130" width="210" height="26" as="geometry" />
        </mxCell>
        <mxCell id="4kKo8zn2Ya34dpTa8X-u-15" value="incrementValue()" style="text;strokeColor=none;fillColor=none;align=left;verticalAlign=top;spacingLeft=4;spacingRight=4;overflow=hidden;rotatable=0;points=[[0,0.5],[1,0.5]];portConstraint=eastwest;whiteSpace=wrap;html=1;" parent="4kKo8zn2Ya34dpTa8X-u-6" vertex="1">
          <mxGeometry y="156" width="210" height="26" as="geometry" />
        </mxCell>
        <mxCell id="4kKo8zn2Ya34dpTa8X-u-9" value="" style="line;strokeWidth=1;fillColor=none;align=left;verticalAlign=middle;spacingTop=-1;spacingLeft=3;spacingRight=3;rotatable=0;labelPosition=right;points=[];portConstraint=eastwest;strokeColor=inherit;" parent="4kKo8zn2Ya34dpTa8X-u-6" vertex="1">
          <mxGeometry y="182" width="210" height="8" as="geometry" />
        </mxCell>
        <mxCell id="4kKo8zn2Ya34dpTa8X-u-10" value="-_value:int" style="text;strokeColor=none;fillColor=none;align=left;verticalAlign=top;spacingLeft=4;spacingRight=4;overflow=hidden;rotatable=0;points=[[0,0.5],[1,0.5]];portConstraint=eastwest;whiteSpace=wrap;html=1;" parent="4kKo8zn2Ya34dpTa8X-u-6" vertex="1">
          <mxGeometry y="190" width="210" height="26" as="geometry" />
        </mxCell>
        <mxCell id="4kKo8zn2Ya34dpTa8X-u-37" value="-_listeners:st&amp;lt;ICounterListener&amp;gt;" style="text;strokeColor=none;fillColor=none;align=left;verticalAlign=top;spacingLeft=4;spacingRight=4;overflow=hidden;rotatable=0;points=[[0,0.5],[1,0.5]];portConstraint=eastwest;whiteSpace=wrap;html=1;" parent="4kKo8zn2Ya34dpTa8X-u-6" vertex="1">
          <mxGeometry y="216" width="210" height="26" as="geometry" />
        </mxCell>
        <mxCell id="4kKo8zn2Ya34dpTa8X-u-16" value="CounterView" style="swimlane;fontStyle=1;align=center;verticalAlign=top;childLayout=stackLayout;horizontal=1;startSize=26;horizontalStack=0;resizeParent=1;resizeParentMax=0;resizeLast=0;collapsible=1;marginBottom=0;whiteSpace=wrap;html=1;" parent="1" vertex="1">
          <mxGeometry x="1340" y="538" width="210" height="112" as="geometry" />
        </mxCell>
        <mxCell id="4kKo8zn2Ya34dpTa8X-u-17" value="notify()" style="text;strokeColor=none;fillColor=none;align=left;verticalAlign=top;spacingLeft=4;spacingRight=4;overflow=hidden;rotatable=0;points=[[0,0.5],[1,0.5]];portConstraint=eastwest;whiteSpace=wrap;html=1;" parent="4kKo8zn2Ya34dpTa8X-u-16" vertex="1">
          <mxGeometry y="26" width="210" height="26" as="geometry" />
        </mxCell>
        <mxCell id="4kKo8zn2Ya34dpTa8X-u-18" value="mouseReleaseEvent(event)" style="text;strokeColor=none;fillColor=none;align=left;verticalAlign=top;spacingLeft=4;spacingRight=4;overflow=hidden;rotatable=0;points=[[0,0.5],[1,0.5]];portConstraint=eastwest;whiteSpace=wrap;html=1;" parent="4kKo8zn2Ya34dpTa8X-u-16" vertex="1">
          <mxGeometry y="52" width="210" height="26" as="geometry" />
        </mxCell>
        <mxCell id="4kKo8zn2Ya34dpTa8X-u-23" value="" style="line;strokeWidth=1;fillColor=none;align=left;verticalAlign=middle;spacingTop=-1;spacingLeft=3;spacingRight=3;rotatable=0;labelPosition=right;points=[];portConstraint=eastwest;strokeColor=inherit;" parent="4kKo8zn2Ya34dpTa8X-u-16" vertex="1">
          <mxGeometry y="78" width="210" height="8" as="geometry" />
        </mxCell>
        <mxCell id="4kKo8zn2Ya34dpTa8X-u-24" value="-_document:CounterDocument" style="text;strokeColor=none;fillColor=none;align=left;verticalAlign=top;spacingLeft=4;spacingRight=4;overflow=hidden;rotatable=0;points=[[0,0.5],[1,0.5]];portConstraint=eastwest;whiteSpace=wrap;html=1;" parent="4kKo8zn2Ya34dpTa8X-u-16" vertex="1">
          <mxGeometry y="86" width="210" height="26" as="geometry" />
        </mxCell>
        <mxCell id="4kKo8zn2Ya34dpTa8X-u-25" value="" style="endArrow=diamondThin;endFill=0;endSize=24;html=1;rounded=0;" parent="1" source="4kKo8zn2Ya34dpTa8X-u-6" target="4kKo8zn2Ya34dpTa8X-u-16" edge="1">
          <mxGeometry width="160" relative="1" as="geometry">
            <mxPoint x="1050" y="560" as="sourcePoint" />
            <mxPoint x="1210" y="560" as="targetPoint" />
          </mxGeometry>
        </mxCell>
        <mxCell id="4kKo8zn2Ya34dpTa8X-u-26" value="ProgressBarView" style="swimlane;fontStyle=1;align=center;verticalAlign=top;childLayout=stackLayout;horizontal=1;startSize=26;horizontalStack=0;resizeParent=1;resizeParentMax=0;resizeLast=0;collapsible=1;marginBottom=0;whiteSpace=wrap;html=1;" parent="1" vertex="1">
          <mxGeometry x="790" y="542" width="210" height="86" as="geometry" />
        </mxCell>
        <mxCell id="4kKo8zn2Ya34dpTa8X-u-27" value="notify()" style="text;strokeColor=none;fillColor=none;align=left;verticalAlign=top;spacingLeft=4;spacingRight=4;overflow=hidden;rotatable=0;points=[[0,0.5],[1,0.5]];portConstraint=eastwest;whiteSpace=wrap;html=1;" parent="4kKo8zn2Ya34dpTa8X-u-26" vertex="1">
          <mxGeometry y="26" width="210" height="26" as="geometry" />
        </mxCell>
        <mxCell id="4kKo8zn2Ya34dpTa8X-u-29" value="" style="line;strokeWidth=1;fillColor=none;align=left;verticalAlign=middle;spacingTop=-1;spacingLeft=3;spacingRight=3;rotatable=0;labelPosition=right;points=[];portConstraint=eastwest;strokeColor=inherit;" parent="4kKo8zn2Ya34dpTa8X-u-26" vertex="1">
          <mxGeometry y="52" width="210" height="8" as="geometry" />
        </mxCell>
        <mxCell id="4kKo8zn2Ya34dpTa8X-u-30" value="-_document:CounterDocument" style="text;strokeColor=none;fillColor=none;align=left;verticalAlign=top;spacingLeft=4;spacingRight=4;overflow=hidden;rotatable=0;points=[[0,0.5],[1,0.5]];portConstraint=eastwest;whiteSpace=wrap;html=1;" parent="4kKo8zn2Ya34dpTa8X-u-26" vertex="1">
          <mxGeometry y="60" width="210" height="26" as="geometry" />
        </mxCell>
        <mxCell id="4kKo8zn2Ya34dpTa8X-u-31" value="ICounterListener" style="swimlane;fontStyle=1;align=center;verticalAlign=top;childLayout=stackLayout;horizontal=1;startSize=26;horizontalStack=0;resizeParent=1;resizeParentMax=0;resizeLast=0;collapsible=1;marginBottom=0;whiteSpace=wrap;html=1;" parent="1" vertex="1">
          <mxGeometry x="1070" y="542" width="160" height="86" as="geometry" />
        </mxCell>
        <mxCell id="4kKo8zn2Ya34dpTa8X-u-32" value="+ field: type" style="text;strokeColor=none;fillColor=none;align=left;verticalAlign=top;spacingLeft=4;spacingRight=4;overflow=hidden;rotatable=0;points=[[0,0.5],[1,0.5]];portConstraint=eastwest;whiteSpace=wrap;html=1;" parent="4kKo8zn2Ya34dpTa8X-u-31" vertex="1">
          <mxGeometry y="26" width="160" height="26" as="geometry" />
        </mxCell>
        <mxCell id="4kKo8zn2Ya34dpTa8X-u-33" value="" style="line;strokeWidth=1;fillColor=none;align=left;verticalAlign=middle;spacingTop=-1;spacingLeft=3;spacingRight=3;rotatable=0;labelPosition=right;points=[];portConstraint=eastwest;strokeColor=inherit;" parent="4kKo8zn2Ya34dpTa8X-u-31" vertex="1">
          <mxGeometry y="52" width="160" height="8" as="geometry" />
        </mxCell>
        <mxCell id="4kKo8zn2Ya34dpTa8X-u-34" value="+ method(type): type" style="text;strokeColor=none;fillColor=none;align=left;verticalAlign=top;spacingLeft=4;spacingRight=4;overflow=hidden;rotatable=0;points=[[0,0.5],[1,0.5]];portConstraint=eastwest;whiteSpace=wrap;html=1;" parent="4kKo8zn2Ya34dpTa8X-u-31" vertex="1">
          <mxGeometry y="60" width="160" height="26" as="geometry" />
        </mxCell>
        <mxCell id="4kKo8zn2Ya34dpTa8X-u-35" value="" style="endArrow=block;dashed=1;endFill=0;endSize=12;html=1;rounded=0;" parent="1" source="4kKo8zn2Ya34dpTa8X-u-16" target="4kKo8zn2Ya34dpTa8X-u-31" edge="1">
          <mxGeometry width="160" relative="1" as="geometry">
            <mxPoint x="1360" y="160" as="sourcePoint" />
            <mxPoint x="1520" y="160" as="targetPoint" />
          </mxGeometry>
        </mxCell>
        <mxCell id="4kKo8zn2Ya34dpTa8X-u-36" value="" style="endArrow=block;dashed=1;endFill=0;endSize=12;html=1;rounded=0;" parent="1" source="4kKo8zn2Ya34dpTa8X-u-26" target="4kKo8zn2Ya34dpTa8X-u-31" edge="1">
          <mxGeometry width="160" relative="1" as="geometry">
            <mxPoint x="1360" y="160" as="sourcePoint" />
            <mxPoint x="1520" y="160" as="targetPoint" />
          </mxGeometry>
        </mxCell>
        <mxCell id="4kKo8zn2Ya34dpTa8X-u-38" value="" style="endArrow=diamondThin;endFill=0;endSize=24;html=1;rounded=0;" parent="1" source="4kKo8zn2Ya34dpTa8X-u-31" target="4kKo8zn2Ya34dpTa8X-u-6" edge="1">
          <mxGeometry width="160" relative="1" as="geometry">
            <mxPoint x="1160" y="510" as="sourcePoint" />
            <mxPoint x="1320" y="510" as="targetPoint" />
          </mxGeometry>
        </mxCell>
        <mxCell id="4kKo8zn2Ya34dpTa8X-u-39" value="" style="endArrow=diamondThin;endFill=0;endSize=24;html=1;rounded=0;" parent="1" source="4kKo8zn2Ya34dpTa8X-u-6" target="4kKo8zn2Ya34dpTa8X-u-26" edge="1">
          <mxGeometry width="160" relative="1" as="geometry">
            <mxPoint x="1050" y="560" as="sourcePoint" />
            <mxPoint x="1210" y="560" as="targetPoint" />
          </mxGeometry>
        </mxCell>
        <mxCell id="9EUlEhy6TDJnNqE-2FSi-1" value="View" style="swimlane;fontStyle=1;align=center;verticalAlign=top;childLayout=stackLayout;horizontal=1;startSize=26;horizontalStack=0;resizeParent=1;resizeParentMax=0;resizeLast=0;collapsible=1;marginBottom=0;whiteSpace=wrap;html=1;fillColor=#dae8fc;strokeColor=#6c8ebf;" vertex="1" parent="1">
          <mxGeometry x="1140" y="1040" width="160" height="86" as="geometry" />
        </mxCell>
        <mxCell id="9EUlEhy6TDJnNqE-2FSi-12" value="&lt;span&gt;+OnDocumentChanged()&lt;/span&gt;" style="text;strokeColor=none;fillColor=none;align=left;verticalAlign=top;spacingLeft=4;spacingRight=4;overflow=hidden;rotatable=0;points=[[0,0.5],[1,0.5]];portConstraint=eastwest;whiteSpace=wrap;html=1;fontStyle=0" vertex="1" parent="9EUlEhy6TDJnNqE-2FSi-1">
          <mxGeometry y="26" width="160" height="26" as="geometry" />
        </mxCell>
        <mxCell id="9EUlEhy6TDJnNqE-2FSi-20" value="" style="line;strokeWidth=1;fillColor=none;align=left;verticalAlign=middle;spacingTop=-1;spacingLeft=3;spacingRight=3;rotatable=0;labelPosition=right;points=[];portConstraint=eastwest;strokeColor=inherit;" vertex="1" parent="9EUlEhy6TDJnNqE-2FSi-1">
          <mxGeometry y="52" width="160" height="8" as="geometry" />
        </mxCell>
        <mxCell id="9EUlEhy6TDJnNqE-2FSi-18" value="&lt;span&gt;-m_document:Document&amp;amp;&lt;/span&gt;" style="text;strokeColor=none;fillColor=none;align=left;verticalAlign=top;spacingLeft=4;spacingRight=4;overflow=hidden;rotatable=0;points=[[0,0.5],[1,0.5]];portConstraint=eastwest;whiteSpace=wrap;html=1;fontStyle=0" vertex="1" parent="9EUlEhy6TDJnNqE-2FSi-1">
          <mxGeometry y="60" width="160" height="26" as="geometry" />
        </mxCell>
        <mxCell id="9EUlEhy6TDJnNqE-2FSi-5" value="Document" style="swimlane;fontStyle=1;align=center;verticalAlign=top;childLayout=stackLayout;horizontal=1;startSize=26;horizontalStack=0;resizeParent=1;resizeParentMax=0;resizeLast=0;collapsible=1;marginBottom=0;whiteSpace=wrap;html=1;fillColor=#d5e8d4;strokeColor=#82b366;" vertex="1" parent="1">
          <mxGeometry x="1080" y="791" width="280" height="138" as="geometry" />
        </mxCell>
        <mxCell id="9EUlEhy6TDJnNqE-2FSi-13" value="+Increment()" style="text;strokeColor=none;fillColor=none;align=left;verticalAlign=top;spacingLeft=4;spacingRight=4;overflow=hidden;rotatable=0;points=[[0,0.5],[1,0.5]];portConstraint=eastwest;whiteSpace=wrap;html=1;" vertex="1" parent="9EUlEhy6TDJnNqE-2FSi-5">
          <mxGeometry y="26" width="280" height="26" as="geometry" />
        </mxCell>
        <mxCell id="9EUlEhy6TDJnNqE-2FSi-14" value="+GetCounter()" style="text;strokeColor=none;fillColor=none;align=left;verticalAlign=top;spacingLeft=4;spacingRight=4;overflow=hidden;rotatable=0;points=[[0,0.5],[1,0.5]];portConstraint=eastwest;whiteSpace=wrap;html=1;" vertex="1" parent="9EUlEhy6TDJnNqE-2FSi-5">
          <mxGeometry y="52" width="280" height="26" as="geometry" />
        </mxCell>
        <mxCell id="9EUlEhy6TDJnNqE-2FSi-16" value="" style="line;strokeWidth=1;fillColor=none;align=left;verticalAlign=middle;spacingTop=-1;spacingLeft=3;spacingRight=3;rotatable=0;labelPosition=right;points=[];portConstraint=eastwest;strokeColor=inherit;" vertex="1" parent="9EUlEhy6TDJnNqE-2FSi-5">
          <mxGeometry y="78" width="280" height="8" as="geometry" />
        </mxCell>
        <mxCell id="9EUlEhy6TDJnNqE-2FSi-15" value="-m_counter:int" style="text;strokeColor=none;fillColor=none;align=left;verticalAlign=top;spacingLeft=4;spacingRight=4;overflow=hidden;rotatable=0;points=[[0,0.5],[1,0.5]];portConstraint=eastwest;whiteSpace=wrap;html=1;" vertex="1" parent="9EUlEhy6TDJnNqE-2FSi-5">
          <mxGeometry y="86" width="280" height="26" as="geometry" />
        </mxCell>
        <mxCell id="9EUlEhy6TDJnNqE-2FSi-21" value="-m_listeners:unordered_set&amp;lt;IDocumentListener*&amp;gt;" style="text;strokeColor=none;fillColor=none;align=left;verticalAlign=top;spacingLeft=4;spacingRight=4;overflow=hidden;rotatable=0;points=[[0,0.5],[1,0.5]];portConstraint=eastwest;whiteSpace=wrap;html=1;" vertex="1" parent="9EUlEhy6TDJnNqE-2FSi-5">
          <mxGeometry y="112" width="280" height="26" as="geometry" />
        </mxCell>
        <mxCell id="9EUlEhy6TDJnNqE-2FSi-6" value="IDocumentListener" style="swimlane;fontStyle=3;align=center;verticalAlign=top;childLayout=stackLayout;horizontal=1;startSize=26;horizontalStack=0;resizeParent=1;resizeParentMax=0;resizeLast=0;collapsible=1;marginBottom=0;whiteSpace=wrap;html=1;fillColor=#d5e8d4;strokeColor=#82b366;" vertex="1" parent="1">
          <mxGeometry x="830" y="810" width="160" height="52" as="geometry" />
        </mxCell>
        <mxCell id="9EUlEhy6TDJnNqE-2FSi-7" value="&lt;i&gt;+OnDocumentChanged()&lt;/i&gt;" style="text;strokeColor=none;fillColor=none;align=left;verticalAlign=top;spacingLeft=4;spacingRight=4;overflow=hidden;rotatable=0;points=[[0,0.5],[1,0.5]];portConstraint=eastwest;whiteSpace=wrap;html=1;" vertex="1" parent="9EUlEhy6TDJnNqE-2FSi-6">
          <mxGeometry y="26" width="160" height="26" as="geometry" />
        </mxCell>
        <mxCell id="9EUlEhy6TDJnNqE-2FSi-9" value="" style="endArrow=block;dashed=1;endFill=0;endSize=12;html=1;rounded=0;" edge="1" parent="1" source="9EUlEhy6TDJnNqE-2FSi-1" target="9EUlEhy6TDJnNqE-2FSi-6">
          <mxGeometry width="160" relative="1" as="geometry">
            <mxPoint x="1110" y="970" as="sourcePoint" />
            <mxPoint x="1270" y="970" as="targetPoint" />
          </mxGeometry>
        </mxCell>
        <mxCell id="9EUlEhy6TDJnNqE-2FSi-10" value="" style="endArrow=diamondThin;endFill=0;endSize=24;html=1;rounded=0;" edge="1" parent="1" source="9EUlEhy6TDJnNqE-2FSi-5" target="9EUlEhy6TDJnNqE-2FSi-1">
          <mxGeometry width="160" relative="1" as="geometry">
            <mxPoint x="970" y="1160" as="sourcePoint" />
            <mxPoint x="1130" y="1160" as="targetPoint" />
          </mxGeometry>
        </mxCell>
        <mxCell id="9EUlEhy6TDJnNqE-2FSi-11" value="" style="endArrow=diamondThin;endFill=0;endSize=24;html=1;rounded=0;" edge="1" parent="1" source="9EUlEhy6TDJnNqE-2FSi-6" target="9EUlEhy6TDJnNqE-2FSi-5">
          <mxGeometry width="160" relative="1" as="geometry">
            <mxPoint x="1210" y="960" as="sourcePoint" />
            <mxPoint x="1370" y="960" as="targetPoint" />
          </mxGeometry>
        </mxCell>
        <mxCell id="9EUlEhy6TDJnNqE-2FSi-22" value="AnotherView" style="swimlane;fontStyle=1;align=center;verticalAlign=top;childLayout=stackLayout;horizontal=1;startSize=26;horizontalStack=0;resizeParent=1;resizeParentMax=0;resizeLast=0;collapsible=1;marginBottom=0;whiteSpace=wrap;html=1;fillColor=#dae8fc;strokeColor=#6c8ebf;" vertex="1" parent="1">
          <mxGeometry x="850" y="1040" width="160" height="86" as="geometry" />
        </mxCell>
        <mxCell id="9EUlEhy6TDJnNqE-2FSi-23" value="&lt;span&gt;+OnDocumentChanged()&lt;/span&gt;" style="text;strokeColor=none;fillColor=none;align=left;verticalAlign=top;spacingLeft=4;spacingRight=4;overflow=hidden;rotatable=0;points=[[0,0.5],[1,0.5]];portConstraint=eastwest;whiteSpace=wrap;html=1;fontStyle=0" vertex="1" parent="9EUlEhy6TDJnNqE-2FSi-22">
          <mxGeometry y="26" width="160" height="26" as="geometry" />
        </mxCell>
        <mxCell id="9EUlEhy6TDJnNqE-2FSi-24" value="" style="line;strokeWidth=1;fillColor=none;align=left;verticalAlign=middle;spacingTop=-1;spacingLeft=3;spacingRight=3;rotatable=0;labelPosition=right;points=[];portConstraint=eastwest;strokeColor=inherit;" vertex="1" parent="9EUlEhy6TDJnNqE-2FSi-22">
          <mxGeometry y="52" width="160" height="8" as="geometry" />
        </mxCell>
        <mxCell id="9EUlEhy6TDJnNqE-2FSi-25" value="&lt;span&gt;-m_document:Document&amp;amp;&lt;/span&gt;" style="text;strokeColor=none;fillColor=none;align=left;verticalAlign=top;spacingLeft=4;spacingRight=4;overflow=hidden;rotatable=0;points=[[0,0.5],[1,0.5]];portConstraint=eastwest;whiteSpace=wrap;html=1;fontStyle=0" vertex="1" parent="9EUlEhy6TDJnNqE-2FSi-22">
          <mxGeometry y="60" width="160" height="26" as="geometry" />
        </mxCell>
        <mxCell id="9EUlEhy6TDJnNqE-2FSi-26" value="" style="endArrow=block;dashed=1;endFill=0;endSize=12;html=1;rounded=0;" edge="1" parent="1" source="9EUlEhy6TDJnNqE-2FSi-22" target="9EUlEhy6TDJnNqE-2FSi-6">
          <mxGeometry width="160" relative="1" as="geometry">
            <mxPoint x="1110" y="970" as="sourcePoint" />
            <mxPoint x="1270" y="970" as="targetPoint" />
          </mxGeometry>
        </mxCell>
        <mxCell id="9EUlEhy6TDJnNqE-2FSi-27" value="" style="endArrow=diamondThin;endFill=0;endSize=24;html=1;rounded=0;" edge="1" parent="1" source="9EUlEhy6TDJnNqE-2FSi-5" target="9EUlEhy6TDJnNqE-2FSi-22">
          <mxGeometry width="160" relative="1" as="geometry">
            <mxPoint x="970" y="1160" as="sourcePoint" />
            <mxPoint x="1130" y="1160" as="targetPoint" />
          </mxGeometry>
        </mxCell>
      </root>
    </mxGraphModel>
  </diagram>
</mxfile>
